<svg width="649" height="443" viewBox="0 0 649 443" fill="none" xmlns="http://www.w3.org/2000/svg">
<path d="M648.48 424.625H0V424.949H648.48V424.625Z" fill="#E6E6E6"/>
<path d="M147.672 435.026H103.057V435.351H147.672V435.026Z" fill="#E6E6E6"/>
<path d="M169.551 435.026H156.219V435.351H169.551V435.026Z" fill="#E6E6E6"/>
<path d="M235.333 428.658H210.224V428.983H235.333V428.658Z" fill="#E6E6E6"/>
<path d="M558.484 442.224H502.468V442.549H558.484V442.224Z" fill="#E6E6E6"/>
<path d="M578.25 442.224H570.04V442.549H578.25V442.224Z" fill="#E6E6E6"/>
<path d="M516.644 430.837H395.145V431.161H516.644V430.837Z" fill="#E6E6E6"/>
<path d="M307.379 366.78H56.9493C54.9875 366.777 53.1071 365.995 51.7211 364.607C50.3351 363.218 49.5566 361.337 49.5566 359.375V7.34079C49.5737 5.3902 50.3597 3.52511 51.7439 2.15064C53.1281 0.776176 54.9986 0.00334147 56.9493 0H307.379C309.343 0 311.227 0.780235 312.616 2.16906C314.005 3.55789 314.785 5.44154 314.785 7.40564V359.375C314.785 361.339 314.005 363.222 312.616 364.611C311.227 366 309.343 366.78 307.379 366.78ZM56.9493 0.259393C55.0735 0.262829 53.2756 1.01042 51.9504 2.33806C50.6252 3.66571 49.8809 5.46493 49.8809 7.34079V359.375C49.8809 361.251 50.6252 363.05 51.9504 364.377C53.2756 365.705 55.0735 366.453 56.9493 366.456H307.379C309.256 366.453 311.056 365.705 312.383 364.378C313.71 363.051 314.457 361.252 314.461 359.375V7.34079C314.457 5.46374 313.71 3.66455 312.383 2.33727C311.056 1.01 309.256 0.262821 307.379 0.259393H56.9493Z" fill="#E6E6E6"/>
<path d="M587.925 366.78H337.482C335.519 366.777 333.637 365.996 332.249 364.607C330.861 363.219 330.08 361.338 330.076 359.375V7.34079C330.097 5.38902 330.886 3.52394 332.272 2.14983C333.658 0.775723 335.53 0.00330503 337.482 0H587.925C589.873 0.00675002 591.741 0.781093 593.122 2.15519C594.503 3.5293 595.287 5.39244 595.305 7.34079V359.375C595.305 361.334 594.528 363.214 593.145 364.602C591.761 365.99 589.884 366.773 587.925 366.78ZM337.482 0.259393C335.605 0.262821 333.806 1.01 332.478 2.33727C331.151 3.66455 330.404 5.46374 330.4 7.34079V359.375C330.404 361.252 331.151 363.051 332.478 364.378C333.806 365.705 335.605 366.453 337.482 366.456H587.925C589.802 366.453 591.601 365.705 592.928 364.378C594.256 363.051 595.003 361.252 595.006 359.375V7.34079C595.003 5.46374 594.256 3.66455 592.928 2.33727C591.601 1.01 589.802 0.262821 587.925 0.259393H337.482Z" fill="#E6E6E6"/>
<path d="M543.452 247.862H452.574V424.625H543.452V247.862Z" fill="#F5F5F5"/>
<path d="M543.452 247.862H535.956V424.625H543.452V247.862Z" fill="#F0F0F0"/>
<path d="M250.339 291.09H459.578V252.907L250.339 252.907V291.09Z" fill="#E0E0E0"/>
<path d="M337.586 424.754H247.875C247.531 424.754 247.201 424.618 246.958 424.375C246.715 424.131 246.578 423.801 246.578 423.457C246.578 423.113 246.715 422.784 246.958 422.54C247.201 422.297 247.531 422.16 247.875 422.16H337.586C350.555 422.16 352.28 418.373 352.28 403.355V213.998C352.28 213.654 352.417 213.325 352.66 213.081C352.904 212.838 353.233 212.701 353.577 212.701C353.921 212.701 354.251 212.838 354.494 213.081C354.738 213.325 354.874 213.654 354.874 213.998V403.355C354.874 419.411 352.384 424.754 337.586 424.754Z" fill="#E0E0E0"/>
<path d="M258.381 261.804L541.403 261.804V248.549L258.381 248.549V261.804Z" fill="#F0F0F0"/>
<path d="M260.43 247.862H169.552V424.625H260.43V247.862Z" fill="#F5F5F5"/>
<path d="M260.417 247.862H252.92V424.625H260.417V247.862Z" fill="#F0F0F0"/>
<path d="M196.074 424.625L196.074 109.853H118.088L118.088 424.625H196.074Z" fill="#FAFAFA"/>
<path d="M191.794 188.474V119.048H122.368V188.474H191.794Z" fill="#F5F5F5"/>
<path d="M141.706 118.114H172.496C172.496 120.023 171.738 121.854 170.388 123.204C169.038 124.554 167.207 125.312 165.298 125.312H148.956C148.006 125.319 147.065 125.138 146.186 124.779C145.306 124.421 144.507 123.892 143.833 123.223C143.159 122.553 142.624 121.758 142.259 120.881C141.894 120.004 141.706 119.064 141.706 118.114Z" fill="#E0E0E0"/>
<path d="M191.782 264.126V194.7H122.355V264.126H191.782Z" fill="#F5F5F5"/>
<path d="M191.794 339.778V270.351H122.368V339.778H191.794Z" fill="#F5F5F5"/>
<path d="M191.794 415.442V346.016H122.368V415.442H191.794Z" fill="#F5F5F5"/>
<path d="M141.706 193.779H172.496C172.492 195.687 171.733 197.516 170.384 198.865C169.035 200.214 167.206 200.974 165.298 200.977H148.956C148.007 200.982 147.066 200.8 146.188 200.44C145.309 200.081 144.51 199.552 143.836 198.883C143.163 198.214 142.628 197.419 142.262 196.543C141.897 195.667 141.708 194.728 141.706 193.779Z" fill="#E0E0E0"/>
<path d="M141.706 269.43H172.496C172.496 271.339 171.738 273.17 170.388 274.52C169.038 275.87 167.207 276.629 165.298 276.629H148.956C148.006 276.635 147.065 276.454 146.186 276.096C145.306 275.737 144.507 275.208 143.833 274.539C143.159 273.87 142.624 273.074 142.259 272.197C141.894 271.32 141.706 270.38 141.706 269.43Z" fill="#E0E0E0"/>
<path d="M141.706 345.082H172.496C172.496 346.991 171.738 348.822 170.388 350.172C169.038 351.522 167.207 352.28 165.298 352.28H148.956C148.006 352.287 147.065 352.106 146.186 351.747C145.306 351.389 144.507 350.86 143.833 350.191C143.159 349.521 142.624 348.726 142.259 347.849C141.894 346.972 141.706 346.032 141.706 345.082Z" fill="#E0E0E0"/>
<path d="M118.088 424.625L118.088 109.853H79.1407L79.1407 424.625H118.088Z" fill="#F0F0F0"/>
<path d="M342.903 247.862H323.306L328.066 209.705H347.676L342.903 247.862Z" fill="#F0F0F0"/>
<path d="M347.248 247.862H327.638L332.411 209.705H352.008L347.248 247.862Z" fill="#F5F5F5"/>
<path d="M389.296 247.862H375.12L372.409 243.543H386.572L389.296 247.862Z" fill="#F0F0F0"/>
<path d="M465.246 247.862H379.452L376.741 243.543H453.677L465.246 247.862Z" fill="#FAFAFA"/>
<path d="M280.74 236.916H286.939C289.842 236.916 292.627 238.069 294.68 240.122C296.732 242.175 297.886 244.959 297.886 247.862H269.768C269.768 246.422 270.052 244.997 270.603 243.667C271.155 242.337 271.964 241.129 272.983 240.113C274.002 239.096 275.212 238.29 276.543 237.741C277.874 237.193 279.3 236.912 280.74 236.916Z" fill="#F0F0F0"/>
<path d="M349.621 228.784H330.024L332.411 209.705H352.008L349.621 228.784Z" fill="#F0F0F0"/>
<path d="M277.549 224.218H416.324C416.597 224.219 416.867 224.161 417.116 224.049C417.365 223.936 417.587 223.772 417.768 223.567C417.948 223.362 418.083 223.121 418.163 222.86C418.242 222.599 418.266 222.323 418.231 222.053L407.544 136.557C407.487 136.091 407.261 135.663 406.91 135.352C406.559 135.042 406.106 134.871 405.637 134.871H266.901C266.629 134.871 266.361 134.928 266.113 135.04C265.865 135.151 265.643 135.314 265.463 135.518C265.283 135.721 265.148 135.961 265.067 136.22C264.986 136.48 264.962 136.754 264.995 137.024L275.682 222.532C275.738 222.991 275.958 223.414 276.301 223.724C276.644 224.034 277.087 224.209 277.549 224.218Z" fill="#F0F0F0"/>
<path d="M279.651 224.218H418.335C418.608 224.219 418.878 224.161 419.127 224.049C419.376 223.936 419.598 223.772 419.778 223.567C419.959 223.362 420.093 223.121 420.173 222.86C420.253 222.599 420.276 222.323 420.241 222.053L409.554 136.557C409.495 136.093 409.268 135.666 408.918 135.356C408.567 135.046 408.116 134.873 407.648 134.871H268.964C268.692 134.871 268.423 134.928 268.175 135.04C267.927 135.151 267.706 135.314 267.525 135.518C267.345 135.721 267.21 135.961 267.13 136.22C267.049 136.48 267.024 136.754 267.057 137.024L277.744 222.532C277.801 222.998 278.027 223.426 278.378 223.737C278.729 224.047 279.182 224.219 279.651 224.218Z" fill="#F5F5F5"/>
<path d="M415.767 219.485L405.767 139.462C405.748 139.332 405.683 139.212 405.583 139.126C405.482 139.04 405.354 138.994 405.222 138.995H272.064C271.987 138.992 271.911 139.007 271.841 139.036C271.771 139.066 271.708 139.111 271.657 139.168C271.607 139.225 271.569 139.293 271.547 139.366C271.526 139.439 271.52 139.516 271.532 139.592L281.531 219.627C281.547 219.757 281.61 219.876 281.708 219.962C281.806 220.048 281.933 220.095 282.063 220.094H415.235C415.311 220.093 415.386 220.076 415.456 220.043C415.525 220.011 415.586 219.965 415.636 219.908C415.687 219.85 415.724 219.783 415.746 219.71C415.769 219.637 415.776 219.56 415.767 219.485Z" fill="#E0E0E0"/>
<path d="M365.081 247.862H333.15V247.46C333.15 246.617 333.485 245.809 334.081 245.213C334.676 244.617 335.485 244.282 336.327 244.282H361.903C362.746 244.282 363.554 244.617 364.15 245.213C364.746 245.809 365.081 246.617 365.081 247.46V247.862Z" fill="#FAFAFA"/>
<path d="M336.873 247.862H315.213V247.46C315.213 246.617 315.548 245.809 316.144 245.213C316.74 244.617 317.548 244.282 318.391 244.282H333.695C334.538 244.282 335.346 244.617 335.942 245.213C336.538 245.809 336.873 246.617 336.873 247.46V247.862Z" fill="#F0F0F0"/>
<path d="M151.044 74.303V74.2381C151.342 73.2394 151.627 72.2278 151.874 71.2162C152.313 71.9155 152.91 72.5017 153.618 72.9275C154.325 73.3533 155.123 73.6068 155.946 73.6674H156.297C158.462 73.4599 160.538 71.3589 161.848 68.0516C161.873 67.9921 161.886 67.9282 161.886 67.8635C161.886 67.7989 161.873 67.735 161.848 67.6755C161.785 67.5571 161.677 67.4684 161.549 67.4291C159.995 67.035 158.374 66.9734 156.794 67.2483C155.214 67.5232 153.71 68.1284 152.38 69.0243C152.574 68.0646 152.743 67.0919 152.886 66.1321C153.228 66.1981 153.575 66.2328 153.923 66.2359C157.451 66.2359 160.045 63.0842 160.174 62.9286C160.22 62.8715 160.252 62.8044 160.267 62.7327C160.282 62.6611 160.28 62.587 160.261 62.5163C160.242 62.4456 160.207 62.3804 160.158 62.3258C160.109 62.2713 160.048 62.229 159.98 62.2023C159.16 61.7955 158.264 61.5667 157.35 61.5309C156.436 61.4951 155.524 61.6532 154.675 61.9948C153.769 62.4556 153.037 63.1972 152.587 64.1089C151.926 62.0794 150.718 60.2716 149.096 58.8849C147.473 57.4981 145.499 56.5861 143.392 56.2493C143.326 56.2338 143.258 56.234 143.193 56.2497C143.128 56.2655 143.067 56.2965 143.016 56.3401C142.961 56.3783 142.917 56.4287 142.885 56.4872C142.854 56.5458 142.836 56.6108 142.834 56.6773C142.652 59.8808 142.756 63.8105 145.156 65.6782C146.159 66.4183 147.386 66.7935 148.631 66.7417C149.748 66.7148 150.855 66.5403 151.926 66.2229C151.583 68.5408 151.085 70.8329 150.434 73.0838C148.087 69.8857 144.757 67.5442 140.953 66.4174C140.833 66.3895 140.707 66.4089 140.601 66.4717C140.494 66.5345 140.416 66.6358 140.383 66.7547C139.657 69.5172 140.033 71.7609 141.459 73.2395C142.185 73.8912 143.034 74.3902 143.957 74.7066C144.879 75.023 145.856 75.1504 146.829 75.0811C147.874 75.0745 148.917 74.9659 149.941 74.7569C149.345 76.6505 148.644 78.5051 147.983 80.269C146.543 78.972 142.302 75.7555 137.685 77.1044C137.561 77.1455 137.459 77.2341 137.4 77.3508C137.374 77.4103 137.361 77.4742 137.361 77.5389C137.361 77.6035 137.374 77.6675 137.4 77.7269C138.697 80.7878 140.085 82.4868 141.874 83.0704C142.351 83.2277 142.851 83.3065 143.353 83.3039C144.723 83.2456 146.059 82.8539 147.244 82.1625C146.258 84.51 145.208 86.7019 144.209 88.6473C143.024 87.4385 141.534 86.5717 139.898 86.138C138.261 85.7043 136.538 85.7199 134.91 86.1831C134.799 86.2051 134.7 86.2679 134.632 86.3591C134.565 86.4503 134.535 86.5633 134.546 86.676C134.661 87.6568 135.032 88.5902 135.622 89.3825C136.211 90.1747 136.999 90.7979 137.906 91.1894C138.59 91.4835 139.327 91.6337 140.072 91.6303C141.105 91.6174 142.119 91.3549 143.029 90.8651C142.017 92.7457 141.083 94.3151 140.357 95.5083H131.538C130.137 93.1089 128.516 90.1259 126.933 86.7797C127.67 86.9998 128.434 87.1176 129.203 87.1299C130.149 87.1416 131.085 86.9354 131.938 86.5273C132.791 86.1191 133.539 85.52 134.123 84.7763C134.708 84.0326 135.113 83.1643 135.308 82.2387C135.503 81.3131 135.482 80.3551 135.247 79.4389C135.217 79.3325 135.148 79.2409 135.055 79.1811C134.962 79.1214 134.85 79.0978 134.741 79.1147C132.94 79.2903 131.208 79.8971 129.691 80.8836C128.174 81.8701 126.917 83.2074 126.025 84.7824C124.988 82.4479 123.976 79.9707 123.094 77.4157C124.217 78.0544 125.475 78.4188 126.765 78.4792C127.277 78.485 127.786 78.4016 128.269 78.2327C130.863 77.3768 132.355 74.2511 133.626 71.0087C133.654 70.9501 133.669 70.8858 133.669 70.8206C133.669 70.7554 133.654 70.6911 133.626 70.6326C133.596 70.573 133.554 70.5204 133.502 70.4779C133.451 70.4355 133.391 70.4043 133.327 70.3861C128.14 68.9335 123.873 73.9268 122.55 75.7166C121.858 73.5571 121.282 71.3621 120.825 69.1411C121.914 69.3544 123.021 69.4672 124.132 69.4783C125.235 69.5589 126.344 69.4117 127.388 69.0458C128.432 68.6799 129.39 68.1031 130.202 67.3513C131.771 65.6911 132.147 63.201 131.304 60.1661C131.289 60.1066 131.262 60.0507 131.225 60.0019C131.188 59.9531 131.141 59.9123 131.088 59.882C131.035 59.8517 130.976 59.8325 130.915 59.8256C130.854 59.8187 130.792 59.8242 130.733 59.8419C126.595 61.1334 122.992 63.7433 120.474 67.2734L120.28 66.0932C120.266 65.9911 120.221 65.8958 120.15 65.8208C119.936 65.0535 119.564 64.3395 119.057 63.7251C118.549 63.1108 117.919 62.6097 117.206 62.2542C116.271 61.8932 115.269 61.7343 114.268 61.788C113.266 61.8416 112.287 62.1066 111.396 62.5655C111.327 62.5951 111.266 62.6395 111.217 62.6956C111.167 62.7517 111.131 62.8179 111.11 62.8897C111.094 62.9601 111.096 63.0334 111.114 63.1033C111.132 63.1732 111.166 63.2378 111.214 63.2918C111.344 63.4604 114.197 66.8325 118.036 66.8325C118.45 66.8271 118.862 66.7837 119.268 66.7028C119.437 67.8052 119.644 68.9076 119.878 69.9971C118.399 69.0234 116.73 68.3743 114.982 68.0926C113.234 67.811 111.446 67.9031 109.736 68.3629C109.607 68.4022 109.5 68.4909 109.437 68.6093C109.412 68.6709 109.398 68.7371 109.398 68.8039C109.398 68.8706 109.412 68.9367 109.437 68.9984C110.929 72.6039 113.237 74.8866 115.624 75.0811H115.948C117.154 75.0811 118.788 74.5234 120.449 72.3056C121.102 74.8274 121.89 77.3125 122.809 79.7502C120.565 78.6867 115.52 76.858 111.915 79.6464C111.865 79.6823 111.823 79.7277 111.792 79.7801C111.76 79.8325 111.739 79.8908 111.731 79.9513C111.723 80.0119 111.726 80.0735 111.742 80.1326C111.758 80.1916 111.786 80.2469 111.824 80.2949C114.158 83.4725 116.311 85.0159 118.425 85.0159C120.176 85.0159 121.849 83.9134 123.522 81.7345C124.482 84.1209 125.52 86.4036 126.544 88.5047C124.301 87.1169 121.836 87.3374 118.931 89.1661C118.864 89.2064 118.808 89.2634 118.77 89.3316C118.731 89.3998 118.711 89.4768 118.711 89.5552C118.705 89.6315 118.721 89.7079 118.755 89.7763C118.789 89.8447 118.841 89.9027 118.905 89.9443C120.635 91.1915 122.679 91.9325 124.806 92.0843C125.904 92.1061 126.98 91.7791 127.88 91.1505C128.71 92.7457 129.527 94.2113 130.279 95.5212H126.272V97.8039H127.724L128.931 109.892H146.686L147.879 97.8039H149.345V95.5212H141.369C142.25 94.0557 143.379 92.0972 144.585 89.8016C144.621 89.7554 144.647 89.7025 144.663 89.646C144.974 89.0624 145.272 88.4658 145.584 87.8432C146.111 88.6413 146.822 89.3015 147.657 89.7685C148.492 90.2356 149.426 90.496 150.382 90.5279C150.581 90.5408 150.78 90.5408 150.979 90.5279C152.036 90.4082 153.038 89.9982 153.876 89.3435C154.714 88.6888 155.354 87.8149 155.726 86.8186C155.764 86.7163 155.764 86.6035 155.726 86.501C155.688 86.3986 155.614 86.3133 155.518 86.2609C154.158 85.4927 152.635 85.0592 151.075 84.996C149.514 84.9329 147.961 85.242 146.543 85.8978C147.218 84.4841 147.84 82.9667 148.515 81.3973C148.566 81.3391 148.597 81.2667 148.606 81.1898C148.787 80.7488 148.956 80.3079 149.137 79.8929C150.681 81.8383 152.211 82.798 153.806 82.798C155.739 82.798 157.697 81.3714 159.798 78.4273C159.871 78.3289 159.903 78.2058 159.886 78.0845C159.869 77.9632 159.805 77.8534 159.708 77.7788C156.4 75.3016 151.926 77.0006 149.825 77.9863C150.253 76.8191 150.642 75.6388 151.005 74.4327L151.044 74.303Z" fill="#E0E0E0"/>
<path d="M521.988 68.8296H455.661V141.654H521.988V68.8296Z" fill="#E0E0E0"/>
<path d="M513.804 71.8127C513.749 71.8259 513.691 71.8259 513.635 71.8127C513.48 71.7089 497.812 62.3968 492.884 62.3968C487.956 62.3968 472.976 71.7089 472.82 71.7997C472.785 71.8231 472.745 71.839 472.703 71.8465C472.661 71.8539 472.618 71.8527 472.577 71.843C472.536 71.8333 472.497 71.8152 472.463 71.79C472.429 71.7647 472.4 71.7327 472.379 71.696C472.335 71.6235 472.322 71.5368 472.341 71.4544C472.361 71.372 472.411 71.3004 472.483 71.255C473.105 70.8659 487.722 61.7483 492.884 61.7483C498.046 61.7483 513.376 70.827 514.024 71.255C514.061 71.2763 514.093 71.3048 514.118 71.3389C514.144 71.3729 514.162 71.4118 514.172 71.4531C514.181 71.4944 514.182 71.5372 514.175 71.579C514.168 71.6208 514.152 71.6606 514.128 71.696C514.092 71.7452 514.041 71.7825 513.984 71.8033C513.926 71.8241 513.863 71.8273 513.804 71.8127Z" fill="#EBEBEB"/>
<path d="M529.16 68.8296H460.654V141.654H529.16V68.8296Z" fill="#F5F5F5"/>
<path d="M523.427 135.908V74.5623H466.4V135.908H523.427Z" fill="white"/>
<path d="M505.958 116.287C512.062 110.184 512.062 100.288 505.958 94.1852C499.855 88.0819 489.96 88.0819 483.857 94.1852C477.753 100.288 477.753 110.184 483.857 116.287C489.96 122.39 499.855 122.39 505.958 116.287Z" fill="#E0E0E0"/>
<path d="M493.584 336.237H551.714C557.047 336.241 562.17 334.153 565.98 330.42C569.79 326.688 571.984 321.609 572.089 316.277L574.268 209.848C574.308 207.873 573.953 205.91 573.224 204.074C572.496 202.237 571.408 200.565 570.025 199.154C568.642 197.743 566.992 196.623 565.17 195.858C563.349 195.093 561.393 194.699 559.418 194.7H522.973C519.327 194.699 515.808 196.04 513.088 198.468C510.368 200.897 508.638 204.241 508.227 207.864L493.584 336.237Z" fill="#E6E6E6"/>
<path d="M525.308 336.237H463.365C462.594 336.237 461.855 335.931 461.311 335.386C460.766 334.841 460.46 334.102 460.46 333.332V333.059C460.46 330.947 461.299 328.922 462.792 327.428C464.285 325.935 466.311 325.096 468.423 325.096H525.308V336.237Z" fill="#E6E6E6"/>
<path d="M520.418 426.077C520.117 426.084 519.822 425.985 519.585 425.798C519.349 425.611 519.184 425.348 519.121 425.053L500.964 337.534H469.318L451.16 425.053C451.09 425.397 450.886 425.699 450.593 425.892C450.3 426.085 449.942 426.154 449.598 426.084C449.254 426.013 448.952 425.809 448.758 425.516C448.565 425.223 448.496 424.865 448.567 424.521L466.957 335.978C467.018 335.68 467.181 335.413 467.418 335.224C467.655 335.034 467.951 334.934 468.254 334.94H501.975C502.279 334.934 502.575 335.034 502.812 335.224C503.049 335.413 503.212 335.68 503.272 335.978L521.65 424.521C521.719 424.856 521.653 425.205 521.466 425.492C521.279 425.779 520.986 425.98 520.652 426.051C520.575 426.069 520.497 426.078 520.418 426.077Z" fill="#E6E6E6"/>
<path d="M500.691 426.077C500.605 426.09 500.518 426.09 500.432 426.077C500.265 426.043 500.106 425.977 499.965 425.881C499.824 425.786 499.703 425.664 499.609 425.522C499.515 425.38 499.45 425.22 499.418 425.053C499.385 424.886 499.386 424.714 499.42 424.547L517.811 336.003C517.872 335.706 518.035 335.439 518.272 335.25C518.509 335.06 518.805 334.96 519.108 334.966H552.829C553.133 334.96 553.429 335.06 553.665 335.25C553.902 335.439 554.065 335.706 554.126 336.003L572.504 424.547C572.539 424.717 572.54 424.893 572.507 425.063C572.474 425.234 572.408 425.397 572.312 425.542C572.216 425.687 572.093 425.812 571.949 425.909C571.805 426.007 571.643 426.075 571.473 426.11C571.303 426.145 571.127 426.146 570.956 426.113C570.786 426.08 570.623 426.014 570.478 425.918C570.333 425.822 570.208 425.699 570.111 425.555C570.013 425.411 569.945 425.249 569.91 425.079L551.753 337.56H520.081L501.923 425.079C501.857 425.358 501.701 425.608 501.478 425.788C501.255 425.969 500.978 426.071 500.691 426.077Z" fill="#E6E6E6"/>
</svg>
